<?xml version="1.0" encoding="UTF-8" standalone="no"?>
<!DOCTYPE svg PUBLIC "-//W3C//DTD SVG 1.1//EN"
 "http://www.w3.org/Graphics/SVG/1.1/DTD/svg11.dtd">
<!-- Generated by graphviz version 2.40.1 (20161225.0304)
 -->
<!-- Title: example_app Pages: 1 -->
<svg width="1877pt" height="826pt"
 viewBox="0.00 0.00 1876.50 826.00" xmlns="http://www.w3.org/2000/svg" xmlns:xlink="http://www.w3.org/1999/xlink">
<g id="graph0" class="graph" transform="scale(1 1) rotate(0) translate(4 822)">
<title>example_app</title>
<polygon fill="#ffffff" stroke="transparent" points="-4,4 -4,-822 1872.5,-822 1872.5,4 -4,4"/>
<!-- failed_jobs -->
<g id="node1" class="node">
<title>failed_jobs</title>
<polygon fill="#efefef" stroke="transparent" points="43.5,-694.5 43.5,-729.5 270.5,-729.5 270.5,-694.5 43.5,-694.5"/>
<polygon fill="none" stroke="#000000" points="43.5,-694.5 43.5,-729.5 270.5,-729.5 270.5,-694.5 43.5,-694.5"/>
<text text-anchor="start" x="50.205" y="-707.3" font-family="Arial Bold" font-size="18.00" fill="#000000">failed_jobs</text>
<text text-anchor="start" x="136.227" y="-707.3" font-family="Arial" font-size="14.00" fill="#000000">    </text>
<text text-anchor="start" x="170.4318" y="-707.3" font-family="Arial" font-size="14.00" fill="#666666">[BASE TABLE]</text>
<polygon fill="none" stroke="#000000" points="43.5,-664.5 43.5,-694.5 270.5,-694.5 270.5,-664.5 43.5,-664.5"/>
<text text-anchor="start" x="50.5" y="-675.9" font-family="Arial" font-size="14.00" fill="#000000">id    </text>
<text text-anchor="start" x="95.594" y="-675.9" font-family="Arial" font-size="14.00" fill="#666666">[bigint unsigned]</text>
<polygon fill="none" stroke="#000000" points="43.5,-634.5 43.5,-664.5 270.5,-664.5 270.5,-634.5 43.5,-634.5"/>
<text text-anchor="start" x="50.5" y="-645.9" font-family="Arial" font-size="14.00" fill="#000000">uuid    </text>
<text text-anchor="start" x="111.1592" y="-645.9" font-family="Arial" font-size="14.00" fill="#666666">[varchar(255)]</text>
<polygon fill="none" stroke="#000000" points="43.5,-604.5 43.5,-634.5 270.5,-634.5 270.5,-604.5 43.5,-604.5"/>
<text text-anchor="start" x="50.5" y="-615.9" font-family="Arial" font-size="14.00" fill="#000000">connection    </text>
<text text-anchor="start" x="152.3976" y="-615.9" font-family="Arial" font-size="14.00" fill="#666666">[text]</text>
<polygon fill="none" stroke="#000000" points="43.5,-574.5 43.5,-604.5 270.5,-604.5 270.5,-574.5 43.5,-574.5"/>
<text text-anchor="start" x="50.5" y="-585.9" font-family="Arial" font-size="14.00" fill="#000000">queue    </text>
<text text-anchor="start" x="123.6178" y="-585.9" font-family="Arial" font-size="14.00" fill="#666666">[text]</text>
<polygon fill="none" stroke="#000000" points="43.5,-544.5 43.5,-574.5 270.5,-574.5 270.5,-544.5 43.5,-544.5"/>
<text text-anchor="start" x="50.5" y="-555.9" font-family="Arial" font-size="14.00" fill="#000000">payload    </text>
<text text-anchor="start" x="133.7244" y="-555.9" font-family="Arial" font-size="14.00" fill="#666666">[longtext]</text>
<polygon fill="none" stroke="#000000" points="43.5,-514.5 43.5,-544.5 270.5,-544.5 270.5,-514.5 43.5,-514.5"/>
<text text-anchor="start" x="50.5" y="-525.9" font-family="Arial" font-size="14.00" fill="#000000">exception    </text>
<text text-anchor="start" x="144.615" y="-525.9" font-family="Arial" font-size="14.00" fill="#666666">[longtext]</text>
<polygon fill="none" stroke="#000000" points="43.5,-484.5 43.5,-514.5 270.5,-514.5 270.5,-484.5 43.5,-484.5"/>
<text text-anchor="start" x="50.5" y="-495.9" font-family="Arial" font-size="14.00" fill="#000000">failed_at    </text>
<text text-anchor="start" x="137.6122" y="-495.9" font-family="Arial" font-size="14.00" fill="#666666">[timestamp]</text>
</g>
<!-- migrations -->
<g id="node2" class="node">
<title>migrations</title>
<polygon fill="#efefef" stroke="transparent" points="374.5,-634.5 374.5,-669.5 598.5,-669.5 598.5,-634.5 374.5,-634.5"/>
<polygon fill="none" stroke="#000000" points="374.5,-634.5 374.5,-669.5 598.5,-669.5 598.5,-634.5 374.5,-634.5"/>
<text text-anchor="start" x="381.2161" y="-647.3" font-family="Arial Bold" font-size="18.00" fill="#000000">migrations</text>
<text text-anchor="start" x="464.2159" y="-647.3" font-family="Arial" font-size="14.00" fill="#000000">    </text>
<text text-anchor="start" x="498.4207" y="-647.3" font-family="Arial" font-size="14.00" fill="#666666">[BASE TABLE]</text>
<polygon fill="none" stroke="#000000" points="374.5,-604.5 374.5,-634.5 598.5,-634.5 598.5,-604.5 374.5,-604.5"/>
<text text-anchor="start" x="381.5" y="-615.9" font-family="Arial" font-size="14.00" fill="#000000">id    </text>
<text text-anchor="start" x="426.594" y="-615.9" font-family="Arial" font-size="14.00" fill="#666666">[int unsigned]</text>
<polygon fill="none" stroke="#000000" points="374.5,-574.5 374.5,-604.5 598.5,-604.5 598.5,-574.5 374.5,-574.5"/>
<text text-anchor="start" x="381.5" y="-585.9" font-family="Arial" font-size="14.00" fill="#000000">migration    </text>
<text text-anchor="start" x="473.2602" y="-585.9" font-family="Arial" font-size="14.00" fill="#666666">[varchar(255)]</text>
<polygon fill="none" stroke="#000000" points="374.5,-544.5 374.5,-574.5 598.5,-574.5 598.5,-544.5 374.5,-544.5"/>
<text text-anchor="start" x="381.5" y="-555.9" font-family="Arial" font-size="14.00" fill="#000000">batch    </text>
<text text-anchor="start" x="449.9432" y="-555.9" font-family="Arial" font-size="14.00" fill="#666666">[int]</text>
</g>
<!-- password_reset_tokens -->
<g id="node3" class="node">
<title>password_reset_tokens</title>
<polygon fill="#efefef" stroke="transparent" points="703.5,-634.5 703.5,-669.5 1034.5,-669.5 1034.5,-634.5 703.5,-634.5"/>
<polygon fill="none" stroke="#000000" points="703.5,-634.5 703.5,-669.5 1034.5,-669.5 1034.5,-634.5 703.5,-634.5"/>
<text text-anchor="start" x="710.1904" y="-647.3" font-family="Arial Bold" font-size="18.00" fill="#000000">password_reset_tokens</text>
<text text-anchor="start" x="900.2416" y="-647.3" font-family="Arial" font-size="14.00" fill="#000000">    </text>
<text text-anchor="start" x="934.4464" y="-647.3" font-family="Arial" font-size="14.00" fill="#666666">[BASE TABLE]</text>
<polygon fill="none" stroke="#000000" points="703.5,-604.5 703.5,-634.5 1034.5,-634.5 1034.5,-604.5 703.5,-604.5"/>
<text text-anchor="start" x="710.5" y="-615.9" font-family="Arial" font-size="14.00" fill="#000000">email    </text>
<text text-anchor="start" x="778.1438" y="-615.9" font-family="Arial" font-size="14.00" fill="#666666">[varchar(255)]</text>
<polygon fill="none" stroke="#000000" points="703.5,-574.5 703.5,-604.5 1034.5,-604.5 1034.5,-574.5 703.5,-574.5"/>
<text text-anchor="start" x="710.5" y="-585.9" font-family="Arial" font-size="14.00" fill="#000000">token    </text>
<text text-anchor="start" x="778.9432" y="-585.9" font-family="Arial" font-size="14.00" fill="#666666">[varchar(255)]</text>
<polygon fill="none" stroke="#000000" points="703.5,-544.5 703.5,-574.5 1034.5,-574.5 1034.5,-544.5 703.5,-544.5"/>
<text text-anchor="start" x="710.5" y="-555.9" font-family="Arial" font-size="14.00" fill="#000000">created_at    </text>
<text text-anchor="start" x="810.8422" y="-555.9" font-family="Arial" font-size="14.00" fill="#666666">[timestamp]</text>
</g>
<!-- personal_access_tokens -->
<g id="node4" class="node">
<title>personal_access_tokens</title>
<polygon fill="#efefef" stroke="transparent" points="1138.5,-739.5 1138.5,-774.5 1477.5,-774.5 1477.5,-739.5 1138.5,-739.5"/>
<polygon fill="none" stroke="#000000" points="1138.5,-739.5 1138.5,-774.5 1477.5,-774.5 1477.5,-739.5 1138.5,-739.5"/>
<text text-anchor="start" x="1145.1845" y="-752.3" font-family="Arial Bold" font-size="18.00" fill="#000000">personal_access_tokens</text>
<text text-anchor="start" x="1343.2475" y="-752.3" font-family="Arial" font-size="14.00" fill="#000000">    </text>
<text text-anchor="start" x="1377.4523" y="-752.3" font-family="Arial" font-size="14.00" fill="#666666">[BASE TABLE]</text>
<polygon fill="none" stroke="#000000" points="1138.5,-709.5 1138.5,-739.5 1477.5,-739.5 1477.5,-709.5 1138.5,-709.5"/>
<text text-anchor="start" x="1145.5" y="-720.9" font-family="Arial" font-size="14.00" fill="#000000">id    </text>
<text text-anchor="start" x="1190.594" y="-720.9" font-family="Arial" font-size="14.00" fill="#666666">[bigint unsigned]</text>
<polygon fill="none" stroke="#000000" points="1138.5,-679.5 1138.5,-709.5 1477.5,-709.5 1477.5,-679.5 1138.5,-679.5"/>
<text text-anchor="start" x="1145.5" y="-690.9" font-family="Arial" font-size="14.00" fill="#000000">tokenable_type    </text>
<text text-anchor="start" x="1274.636" y="-690.9" font-family="Arial" font-size="14.00" fill="#666666">[varchar(255)]</text>
<polygon fill="none" stroke="#000000" points="1138.5,-649.5 1138.5,-679.5 1477.5,-679.5 1477.5,-649.5 1138.5,-649.5"/>
<text text-anchor="start" x="1145.5" y="-660.9" font-family="Arial" font-size="14.00" fill="#000000">tokenable_id    </text>
<text text-anchor="start" x="1259.0694" y="-660.9" font-family="Arial" font-size="14.00" fill="#666666">[bigint unsigned]</text>
<polygon fill="none" stroke="#000000" points="1138.5,-619.5 1138.5,-649.5 1477.5,-649.5 1477.5,-619.5 1138.5,-619.5"/>
<text text-anchor="start" x="1145.5" y="-630.9" font-family="Arial" font-size="14.00" fill="#000000">name    </text>
<text text-anchor="start" x="1214.7132" y="-630.9" font-family="Arial" font-size="14.00" fill="#666666">[varchar(255)]</text>
<polygon fill="none" stroke="#000000" points="1138.5,-589.5 1138.5,-619.5 1477.5,-619.5 1477.5,-589.5 1138.5,-589.5"/>
<text text-anchor="start" x="1145.5" y="-600.9" font-family="Arial" font-size="14.00" fill="#000000">token    </text>
<text text-anchor="start" x="1213.9432" y="-600.9" font-family="Arial" font-size="14.00" fill="#666666">[varchar(64)]</text>
<polygon fill="none" stroke="#000000" points="1138.5,-559.5 1138.5,-589.5 1477.5,-589.5 1477.5,-559.5 1138.5,-559.5"/>
<text text-anchor="start" x="1145.5" y="-570.9" font-family="Arial" font-size="14.00" fill="#000000">abilities    </text>
<text text-anchor="start" x="1226.3696" y="-570.9" font-family="Arial" font-size="14.00" fill="#666666">[text]</text>
<polygon fill="none" stroke="#000000" points="1138.5,-529.5 1138.5,-559.5 1477.5,-559.5 1477.5,-529.5 1138.5,-529.5"/>
<text text-anchor="start" x="1145.5" y="-540.9" font-family="Arial" font-size="14.00" fill="#000000">last_used_at    </text>
<text text-anchor="start" x="1259.0708" y="-540.9" font-family="Arial" font-size="14.00" fill="#666666">[timestamp]</text>
<polygon fill="none" stroke="#000000" points="1138.5,-499.5 1138.5,-529.5 1477.5,-529.5 1477.5,-499.5 1138.5,-499.5"/>
<text text-anchor="start" x="1145.5" y="-510.9" font-family="Arial" font-size="14.00" fill="#000000">expires_at    </text>
<text text-anchor="start" x="1244.2756" y="-510.9" font-family="Arial" font-size="14.00" fill="#666666">[timestamp]</text>
<polygon fill="none" stroke="#000000" points="1138.5,-469.5 1138.5,-499.5 1477.5,-499.5 1477.5,-469.5 1138.5,-469.5"/>
<text text-anchor="start" x="1145.5" y="-480.9" font-family="Arial" font-size="14.00" fill="#000000">created_at    </text>
<text text-anchor="start" x="1245.8422" y="-480.9" font-family="Arial" font-size="14.00" fill="#666666">[timestamp]</text>
<polygon fill="none" stroke="#000000" points="1138.5,-439.5 1138.5,-469.5 1477.5,-469.5 1477.5,-439.5 1138.5,-439.5"/>
<text text-anchor="start" x="1145.5" y="-450.9" font-family="Arial" font-size="14.00" fill="#000000">updated_at    </text>
<text text-anchor="start" x="1249.7468" y="-450.9" font-family="Arial" font-size="14.00" fill="#666666">[timestamp]</text>
</g>
<!-- user_profiles -->
<g id="node5" class="node">
<title>user_profiles</title>
<polygon fill="#efefef" stroke="transparent" points="1581.5,-649.5 1581.5,-684.5 1825.5,-684.5 1825.5,-649.5 1581.5,-649.5"/>
<polygon fill="none" stroke="#000000" points="1581.5,-649.5 1581.5,-684.5 1825.5,-684.5 1825.5,-649.5 1581.5,-649.5"/>
<text text-anchor="start" x="1588.2099" y="-662.3" font-family="Arial Bold" font-size="18.00" fill="#000000">user_profiles</text>
<text text-anchor="start" x="1691.2221" y="-662.3" font-family="Arial" font-size="14.00" fill="#000000">    </text>
<text text-anchor="start" x="1725.4269" y="-662.3" font-family="Arial" font-size="14.00" fill="#666666">[BASE TABLE]</text>
<polygon fill="none" stroke="#000000" points="1581.5,-619.5 1581.5,-649.5 1825.5,-649.5 1825.5,-619.5 1581.5,-619.5"/>
<text text-anchor="start" x="1588.5" y="-630.9" font-family="Arial" font-size="14.00" fill="#000000">id    </text>
<text text-anchor="start" x="1633.594" y="-630.9" font-family="Arial" font-size="14.00" fill="#666666">[bigint unsigned]</text>
<polygon fill="none" stroke="#000000" points="1581.5,-589.5 1581.5,-619.5 1825.5,-619.5 1825.5,-589.5 1581.5,-589.5"/>
<text text-anchor="start" x="1588.5" y="-600.9" font-family="Arial" font-size="14.00" fill="#000000">user_id    </text>
<text text-anchor="start" x="1668.6024" y="-600.9" font-family="Arial" font-size="14.00" fill="#666666">[bigint unsigned]</text>
<polygon fill="none" stroke="#000000" points="1581.5,-559.5 1581.5,-589.5 1825.5,-589.5 1825.5,-559.5 1581.5,-559.5"/>
<text text-anchor="start" x="1588.5" y="-570.9" font-family="Arial" font-size="14.00" fill="#000000">created_at    </text>
<text text-anchor="start" x="1688.8422" y="-570.9" font-family="Arial" font-size="14.00" fill="#666666">[timestamp]</text>
<polygon fill="none" stroke="#000000" points="1581.5,-529.5 1581.5,-559.5 1825.5,-559.5 1825.5,-529.5 1581.5,-529.5"/>
<text text-anchor="start" x="1588.5" y="-540.9" font-family="Arial" font-size="14.00" fill="#000000">updated_at    </text>
<text text-anchor="start" x="1692.7468" y="-540.9" font-family="Arial" font-size="14.00" fill="#666666">[timestamp]</text>
</g>
<!-- users -->
<g id="node6" class="node">
<title>users</title>
<polygon fill="#efefef" stroke="transparent" points="1582.5,-282.5 1582.5,-317.5 1823.5,-317.5 1823.5,-282.5 1582.5,-282.5"/>
<polygon fill="none" stroke="#000000" points="1582.5,-282.5 1582.5,-317.5 1823.5,-317.5 1823.5,-282.5 1582.5,-282.5"/>
<text text-anchor="start" x="1617.2137" y="-295.3" font-family="Arial Bold" font-size="18.00" fill="#000000">users</text>
<text text-anchor="start" x="1661.2183" y="-295.3" font-family="Arial" font-size="14.00" fill="#000000">    </text>
<text text-anchor="start" x="1695.4231" y="-295.3" font-family="Arial" font-size="14.00" fill="#666666">[BASE TABLE]</text>
<polygon fill="none" stroke="#000000" points="1582.5,-252.5 1582.5,-282.5 1823.5,-282.5 1823.5,-252.5 1582.5,-252.5"/>
<text text-anchor="start" x="1589.5" y="-263.9" font-family="Arial" font-size="14.00" fill="#000000">id    </text>
<text text-anchor="start" x="1634.594" y="-263.9" font-family="Arial" font-size="14.00" fill="#666666">[bigint unsigned]</text>
<polygon fill="none" stroke="#000000" points="1582.5,-222.5 1582.5,-252.5 1823.5,-252.5 1823.5,-222.5 1582.5,-222.5"/>
<text text-anchor="start" x="1589.5" y="-233.9" font-family="Arial" font-size="14.00" fill="#000000">name    </text>
<text text-anchor="start" x="1658.7132" y="-233.9" font-family="Arial" font-size="14.00" fill="#666666">[varchar(255)]</text>
<polygon fill="none" stroke="#000000" points="1582.5,-192.5 1582.5,-222.5 1823.5,-222.5 1823.5,-192.5 1582.5,-192.5"/>
<text text-anchor="start" x="1589.5" y="-203.9" font-family="Arial" font-size="14.00" fill="#000000">email    </text>
<text text-anchor="start" x="1657.1438" y="-203.9" font-family="Arial" font-size="14.00" fill="#666666">[varchar(255)]</text>
<polygon fill="none" stroke="#000000" points="1582.5,-162.5 1582.5,-192.5 1823.5,-192.5 1823.5,-162.5 1582.5,-162.5"/>
<text text-anchor="start" x="1589.5" y="-173.9" font-family="Arial" font-size="14.00" fill="#000000">email_verified_at    </text>
<text text-anchor="start" x="1729.4944" y="-173.9" font-family="Arial" font-size="14.00" fill="#666666">[timestamp]</text>
<polygon fill="none" stroke="#000000" points="1582.5,-132.5 1582.5,-162.5 1823.5,-162.5 1823.5,-132.5 1582.5,-132.5"/>
<text text-anchor="start" x="1589.5" y="-143.9" font-family="Arial" font-size="14.00" fill="#000000">password    </text>
<text text-anchor="start" x="1683.6024" y="-143.9" font-family="Arial" font-size="14.00" fill="#666666">[varchar(255)]</text>
<polygon fill="none" stroke="#000000" points="1582.5,-102.5 1582.5,-132.5 1823.5,-132.5 1823.5,-102.5 1582.5,-102.5"/>
<text text-anchor="start" x="1589.4411" y="-113.9" font-family="Arial" font-size="14.00" fill="#000000">remember_token    </text>
<text text-anchor="start" x="1729.4397" y="-113.9" font-family="Arial" font-size="14.00" fill="#666666">[varchar(100)]</text>
<polygon fill="none" stroke="#000000" points="1582.5,-72.5 1582.5,-102.5 1823.5,-102.5 1823.5,-72.5 1582.5,-72.5"/>
<text text-anchor="start" x="1589.5" y="-83.9" font-family="Arial" font-size="14.00" fill="#000000">created_at    </text>
<text text-anchor="start" x="1689.8422" y="-83.9" font-family="Arial" font-size="14.00" fill="#666666">[timestamp]</text>
<polygon fill="none" stroke="#000000" points="1582.5,-42.5 1582.5,-72.5 1823.5,-72.5 1823.5,-42.5 1582.5,-42.5"/>
<text text-anchor="start" x="1589.5" y="-53.9" font-family="Arial" font-size="14.00" fill="#000000">updated_at    </text>
<text text-anchor="start" x="1693.7468" y="-53.9" font-family="Arial" font-size="14.00" fill="#666666">[timestamp]</text>
</g>
<!-- user_profiles&#45;&gt;users -->
<g id="edge1" class="edge">
<title>user_profiles:user_id&#45;&gt;users:id</title>
<path fill="none" stroke="#000000" d="M1571.1199,-603.3374C1533.0191,-593.8412 1556.4207,-528.3328 1581.5,-487 1644.4031,-383.3303 1760.5969,-464.6697 1823.5,-361 1845.0566,-325.4729 1865.0556,-267.5 1823.5,-267.5"/>
<polygon fill="#000000" stroke="#000000" points="1571.5621,-603.3868 1580.9991,-608.972 1576.5311,-603.9434 1581.5,-604.5 1581.5,-604.5 1581.5,-604.5 1576.5311,-603.9434 1582.0009,-600.028 1571.5621,-603.3868 1571.5621,-603.3868"/>
<text text-anchor="start" x="1528.445" y="-588.5" font-family="Arial" font-size="10.00" fill="#000000">FOREIGN KEY (user_id) REFERENCES users (id)</text>
</g>
</g>
</svg>
