<?xml version="1.0" encoding="UTF-8" standalone="no"?>
<!DOCTYPE svg PUBLIC "-//W3C//DTD SVG 1.1//EN"
 "http://www.w3.org/Graphics/SVG/1.1/DTD/svg11.dtd">
<!-- Generated by graphviz version 2.40.1 (20161225.0304)
 -->
<!-- Title: users Pages: 1 -->
<svg width="535pt" height="652pt"
 viewBox="0.00 0.00 535.00 652.00" xmlns="http://www.w3.org/2000/svg" xmlns:xlink="http://www.w3.org/1999/xlink">
<g id="graph0" class="graph" transform="scale(1 1) rotate(0) translate(4 648)">
<title>users</title>
<polygon fill="#ffffff" stroke="transparent" points="-4,4 -4,-648 531,-648 531,4 -4,4"/>
<!-- users -->
<g id="node1" class="node">
<title>users</title>
<polygon fill="#efefef" stroke="transparent" points="60,-285.5 60,-320.5 270,-320.5 270,-285.5 60,-285.5"/>
<polygon fill="none" stroke="#000000" points="60,-285.5 60,-320.5 270,-320.5 270,-285.5 60,-285.5"/>
<text text-anchor="start" x="79.2137" y="-298.3" font-family="Arial Bold" font-size="18.00" fill="#000000">users</text>
<text text-anchor="start" x="123.2183" y="-298.3" font-family="Arial" font-size="14.00" fill="#000000">    </text>
<text text-anchor="start" x="157.4231" y="-298.3" font-family="Arial" font-size="14.00" fill="#666666">[BASE TABLE]</text>
<polygon fill="none" stroke="#000000" points="60,-255.5 60,-285.5 270,-285.5 270,-255.5 60,-255.5"/>
<text text-anchor="start" x="67" y="-266.9" font-family="Arial" font-size="14.00" fill="#000000">id </text>
<text text-anchor="start" x="81.7798" y="-266.9" font-family="Arial" font-size="14.00" fill="#666666">[bigint unsigned]</text>
<polygon fill="none" stroke="#000000" points="60,-225.5 60,-255.5 270,-255.5 270,-225.5 60,-225.5"/>
<text text-anchor="start" x="67" y="-236.9" font-family="Arial" font-size="14.00" fill="#000000">name </text>
<text text-anchor="start" x="105.899" y="-236.9" font-family="Arial" font-size="14.00" fill="#666666">[varchar(255)]</text>
<polygon fill="none" stroke="#000000" points="60,-195.5 60,-225.5 270,-225.5 270,-195.5 60,-195.5"/>
<text text-anchor="start" x="67" y="-206.9" font-family="Arial" font-size="14.00" fill="#000000">email </text>
<text text-anchor="start" x="104.3296" y="-206.9" font-family="Arial" font-size="14.00" fill="#666666">[varchar(255)]</text>
<polygon fill="none" stroke="#000000" points="60,-165.5 60,-195.5 270,-195.5 270,-165.5 60,-165.5"/>
<text text-anchor="start" x="67" y="-176.9" font-family="Arial" font-size="14.00" fill="#000000">email_verified_at </text>
<text text-anchor="start" x="176.6802" y="-176.9" font-family="Arial" font-size="14.00" fill="#666666">[timestamp]</text>
<polygon fill="none" stroke="#000000" points="60,-135.5 60,-165.5 270,-165.5 270,-135.5 60,-135.5"/>
<text text-anchor="start" x="67" y="-146.9" font-family="Arial" font-size="14.00" fill="#000000">password </text>
<text text-anchor="start" x="130.7882" y="-146.9" font-family="Arial" font-size="14.00" fill="#666666">[varchar(255)]</text>
<polygon fill="none" stroke="#000000" points="60,-105.5 60,-135.5 270,-135.5 270,-105.5 60,-105.5"/>
<text text-anchor="start" x="66.5982" y="-116.9" font-family="Arial" font-size="14.00" fill="#000000">remember_token </text>
<text text-anchor="start" x="176.2826" y="-116.9" font-family="Arial" font-size="14.00" fill="#666666">[varchar(100)]</text>
<polygon fill="none" stroke="#000000" points="60,-75.5 60,-105.5 270,-105.5 270,-75.5 60,-75.5"/>
<text text-anchor="start" x="67" y="-86.9" font-family="Arial" font-size="14.00" fill="#000000">created_at </text>
<text text-anchor="start" x="137.028" y="-86.9" font-family="Arial" font-size="14.00" fill="#666666">[timestamp]</text>
<polygon fill="none" stroke="#000000" points="60,-45.5 60,-75.5 270,-75.5 270,-45.5 60,-45.5"/>
<text text-anchor="start" x="67" y="-56.9" font-family="Arial" font-size="14.00" fill="#000000">updated_at </text>
<text text-anchor="start" x="140.9326" y="-56.9" font-family="Arial" font-size="14.00" fill="#666666">[timestamp]</text>
<polygon fill="none" stroke="#000000" stroke-width="3" points="58.5,-44.5 58.5,-322.5 271.5,-322.5 271.5,-44.5 58.5,-44.5"/>
</g>
<!-- user_profiles -->
<g id="node2" class="node">
<title>user_profiles</title>
<polygon fill="#efefef" stroke="transparent" points="43,-565.5 43,-600.5 287,-600.5 287,-565.5 43,-565.5"/>
<polygon fill="none" stroke="#000000" points="43,-565.5 43,-600.5 287,-600.5 287,-565.5 43,-565.5"/>
<text text-anchor="start" x="49.7099" y="-578.3" font-family="Arial Bold" font-size="18.00" fill="#000000">user_profiles</text>
<text text-anchor="start" x="152.7221" y="-578.3" font-family="Arial" font-size="14.00" fill="#000000">    </text>
<text text-anchor="start" x="186.9269" y="-578.3" font-family="Arial" font-size="14.00" fill="#666666">[BASE TABLE]</text>
<polygon fill="none" stroke="#000000" points="43,-535.5 43,-565.5 287,-565.5 287,-535.5 43,-535.5"/>
<text text-anchor="start" x="50" y="-546.9" font-family="Arial" font-size="14.00" fill="#000000">id    </text>
<text text-anchor="start" x="95.094" y="-546.9" font-family="Arial" font-size="14.00" fill="#666666">[bigint unsigned]</text>
<polygon fill="none" stroke="#000000" points="43,-505.5 43,-535.5 287,-535.5 287,-505.5 43,-505.5"/>
<text text-anchor="start" x="50" y="-516.9" font-family="Arial" font-size="14.00" fill="#000000">user_id    </text>
<text text-anchor="start" x="130.1024" y="-516.9" font-family="Arial" font-size="14.00" fill="#666666">[bigint unsigned]</text>
<polygon fill="none" stroke="#000000" points="43,-475.5 43,-505.5 287,-505.5 287,-475.5 43,-475.5"/>
<text text-anchor="start" x="50" y="-486.9" font-family="Arial" font-size="14.00" fill="#000000">created_at    </text>
<text text-anchor="start" x="150.3422" y="-486.9" font-family="Arial" font-size="14.00" fill="#666666">[timestamp]</text>
<polygon fill="none" stroke="#000000" points="43,-445.5 43,-475.5 287,-475.5 287,-445.5 43,-445.5"/>
<text text-anchor="start" x="50" y="-456.9" font-family="Arial" font-size="14.00" fill="#000000">updated_at    </text>
<text text-anchor="start" x="154.2468" y="-456.9" font-family="Arial" font-size="14.00" fill="#666666">[timestamp]</text>
</g>
<!-- user_profiles&#45;&gt;users -->
<g id="edge1" class="edge">
<title>user_profiles:user_id&#45;&gt;users:id</title>
<path fill="none" stroke="#000000" d="M296.8703,-517.5182C340.3317,-489.312 322.0949,-270.5 270,-270.5"/>
<polygon fill="#000000" stroke="#000000" points="296.5727,-517.608 285.6986,-516.1923 291.7864,-519.054 287,-520.5 287,-520.5 287,-520.5 291.7864,-519.054 288.3014,-524.8077 296.5727,-517.608 296.5727,-517.608"/>
<text text-anchor="start" x="293.945" y="-530.5" font-family="Arial" font-size="10.00" fill="#000000">FOREIGN KEY (user_id) REFERENCES users (id)</text>
</g>
</g>
</svg>
