<?xml version="1.0" encoding="UTF-8" standalone="no"?>
<!DOCTYPE svg PUBLIC "-//W3C//DTD SVG 1.1//EN"
 "http://www.w3.org/Graphics/SVG/1.1/DTD/svg11.dtd">
<!-- Generated by graphviz version 2.40.1 (20161225.0304)
 -->
<!-- Title: user_profiles Pages: 1 -->
<svg width="538pt" height="652pt"
 viewBox="0.00 0.00 538.00 652.00" xmlns="http://www.w3.org/2000/svg" xmlns:xlink="http://www.w3.org/1999/xlink">
<g id="graph0" class="graph" transform="scale(1 1) rotate(0) translate(4 648)">
<title>user_profiles</title>
<polygon fill="#ffffff" stroke="transparent" points="-4,4 -4,-648 534,-648 534,4 -4,4"/>
<!-- user_profiles -->
<g id="node1" class="node">
<title>user_profiles</title>
<polygon fill="#efefef" stroke="transparent" points="240,-562.5 240,-597.5 484,-597.5 484,-562.5 240,-562.5"/>
<polygon fill="none" stroke="#000000" points="240,-562.5 240,-597.5 484,-597.5 484,-562.5 240,-562.5"/>
<text text-anchor="start" x="246.7099" y="-575.3" font-family="Arial Bold" font-size="18.00" fill="#000000">user_profiles</text>
<text text-anchor="start" x="349.7221" y="-575.3" font-family="Arial" font-size="14.00" fill="#000000">    </text>
<text text-anchor="start" x="383.9269" y="-575.3" font-family="Arial" font-size="14.00" fill="#666666">[BASE TABLE]</text>
<polygon fill="none" stroke="#000000" points="240,-532.5 240,-562.5 484,-562.5 484,-532.5 240,-532.5"/>
<text text-anchor="start" x="247" y="-543.9" font-family="Arial" font-size="14.00" fill="#000000">id </text>
<text text-anchor="start" x="261.7798" y="-543.9" font-family="Arial" font-size="14.00" fill="#666666">[bigint unsigned]</text>
<polygon fill="none" stroke="#000000" points="240,-502.5 240,-532.5 484,-532.5 484,-502.5 240,-502.5"/>
<text text-anchor="start" x="247" y="-513.9" font-family="Arial" font-size="14.00" fill="#000000">user_id </text>
<text text-anchor="start" x="296.7882" y="-513.9" font-family="Arial" font-size="14.00" fill="#666666">[bigint unsigned]</text>
<polygon fill="none" stroke="#000000" points="240,-472.5 240,-502.5 484,-502.5 484,-472.5 240,-472.5"/>
<text text-anchor="start" x="247" y="-483.9" font-family="Arial" font-size="14.00" fill="#000000">created_at </text>
<text text-anchor="start" x="317.028" y="-483.9" font-family="Arial" font-size="14.00" fill="#666666">[timestamp]</text>
<polygon fill="none" stroke="#000000" points="240,-442.5 240,-472.5 484,-472.5 484,-442.5 240,-442.5"/>
<text text-anchor="start" x="247" y="-453.9" font-family="Arial" font-size="14.00" fill="#000000">updated_at </text>
<text text-anchor="start" x="320.9326" y="-453.9" font-family="Arial" font-size="14.00" fill="#666666">[timestamp]</text>
<polygon fill="none" stroke="#000000" stroke-width="3" points="238.5,-441.5 238.5,-599.5 485.5,-599.5 485.5,-441.5 238.5,-441.5"/>
</g>
<!-- users -->
<g id="node2" class="node">
<title>users</title>
<polygon fill="#efefef" stroke="transparent" points="241,-282.5 241,-317.5 482,-317.5 482,-282.5 241,-282.5"/>
<polygon fill="none" stroke="#000000" points="241,-282.5 241,-317.5 482,-317.5 482,-282.5 241,-282.5"/>
<text text-anchor="start" x="275.7137" y="-295.3" font-family="Arial Bold" font-size="18.00" fill="#000000">users</text>
<text text-anchor="start" x="319.7183" y="-295.3" font-family="Arial" font-size="14.00" fill="#000000">    </text>
<text text-anchor="start" x="353.9231" y="-295.3" font-family="Arial" font-size="14.00" fill="#666666">[BASE TABLE]</text>
<polygon fill="none" stroke="#000000" points="241,-252.5 241,-282.5 482,-282.5 482,-252.5 241,-252.5"/>
<text text-anchor="start" x="248" y="-263.9" font-family="Arial" font-size="14.00" fill="#000000">id    </text>
<text text-anchor="start" x="293.094" y="-263.9" font-family="Arial" font-size="14.00" fill="#666666">[bigint unsigned]</text>
<polygon fill="none" stroke="#000000" points="241,-222.5 241,-252.5 482,-252.5 482,-222.5 241,-222.5"/>
<text text-anchor="start" x="248" y="-233.9" font-family="Arial" font-size="14.00" fill="#000000">name    </text>
<text text-anchor="start" x="317.2132" y="-233.9" font-family="Arial" font-size="14.00" fill="#666666">[varchar(255)]</text>
<polygon fill="none" stroke="#000000" points="241,-192.5 241,-222.5 482,-222.5 482,-192.5 241,-192.5"/>
<text text-anchor="start" x="248" y="-203.9" font-family="Arial" font-size="14.00" fill="#000000">email    </text>
<text text-anchor="start" x="315.6438" y="-203.9" font-family="Arial" font-size="14.00" fill="#666666">[varchar(255)]</text>
<polygon fill="none" stroke="#000000" points="241,-162.5 241,-192.5 482,-192.5 482,-162.5 241,-162.5"/>
<text text-anchor="start" x="248" y="-173.9" font-family="Arial" font-size="14.00" fill="#000000">email_verified_at    </text>
<text text-anchor="start" x="387.9944" y="-173.9" font-family="Arial" font-size="14.00" fill="#666666">[timestamp]</text>
<polygon fill="none" stroke="#000000" points="241,-132.5 241,-162.5 482,-162.5 482,-132.5 241,-132.5"/>
<text text-anchor="start" x="248" y="-143.9" font-family="Arial" font-size="14.00" fill="#000000">password    </text>
<text text-anchor="start" x="342.1024" y="-143.9" font-family="Arial" font-size="14.00" fill="#666666">[varchar(255)]</text>
<polygon fill="none" stroke="#000000" points="241,-102.5 241,-132.5 482,-132.5 482,-102.5 241,-102.5"/>
<text text-anchor="start" x="247.9411" y="-113.9" font-family="Arial" font-size="14.00" fill="#000000">remember_token    </text>
<text text-anchor="start" x="387.9397" y="-113.9" font-family="Arial" font-size="14.00" fill="#666666">[varchar(100)]</text>
<polygon fill="none" stroke="#000000" points="241,-72.5 241,-102.5 482,-102.5 482,-72.5 241,-72.5"/>
<text text-anchor="start" x="248" y="-83.9" font-family="Arial" font-size="14.00" fill="#000000">created_at    </text>
<text text-anchor="start" x="348.3422" y="-83.9" font-family="Arial" font-size="14.00" fill="#666666">[timestamp]</text>
<polygon fill="none" stroke="#000000" points="241,-42.5 241,-72.5 482,-72.5 482,-42.5 241,-42.5"/>
<text text-anchor="start" x="248" y="-53.9" font-family="Arial" font-size="14.00" fill="#000000">updated_at    </text>
<text text-anchor="start" x="352.2468" y="-53.9" font-family="Arial" font-size="14.00" fill="#666666">[timestamp]</text>
</g>
<!-- user_profiles&#45;&gt;users -->
<g id="edge1" class="edge">
<title>user_profiles:user_id&#45;&gt;users:id</title>
<path fill="none" stroke="#000000" d="M230.0104,-516.4174C189.0617,-506.7547 207.4181,-434.7873 240,-397 311.0083,-314.647 410.9917,-443.353 482,-361 509.1364,-329.5281 523.5556,-267.5 482,-267.5"/>
<polygon fill="#000000" stroke="#000000" points="230.0582,-516.4225 239.5151,-521.9738 235.0291,-516.9613 240,-517.5 240,-517.5 240,-517.5 235.0291,-516.9613 240.4849,-513.0262 230.0582,-516.4225 230.0582,-516.4225"/>
<text text-anchor="start" x="6.945" y="-527.5" font-family="Arial" font-size="10.00" fill="#000000">FOREIGN KEY (user_id) REFERENCES users (id)</text>
</g>
</g>
</svg>
