<?xml version="1.0" encoding="UTF-8" standalone="no"?>
<!DOCTYPE svg PUBLIC "-//W3C//DTD SVG 1.1//EN"
 "http://www.w3.org/Graphics/SVG/1.1/DTD/svg11.dtd">
<!-- Generated by graphviz version 2.40.1 (20161225.0304)
 -->
<!-- Title: example_app Pages: 1 -->
<svg width="1873pt" height="429pt"
 viewBox="0.00 0.00 1873.00 429.00" xmlns="http://www.w3.org/2000/svg" xmlns:xlink="http://www.w3.org/1999/xlink">
<g id="graph0" class="graph" transform="scale(1 1) rotate(0) translate(4 425)">
<title>example_app</title>
<polygon fill="#ffffff" stroke="transparent" points="-4,4 -4,-425 1869,-425 1869,4 -4,4"/>
<!-- failed_jobs -->
<g id="node1" class="node">
<title>failed_jobs</title>
<polygon fill="#efefef" stroke="transparent" points="43.5,-297.5 43.5,-332.5 270.5,-332.5 270.5,-297.5 43.5,-297.5"/>
<polygon fill="none" stroke="#000000" points="43.5,-297.5 43.5,-332.5 270.5,-332.5 270.5,-297.5 43.5,-297.5"/>
<text text-anchor="start" x="50.205" y="-310.3" font-family="Arial Bold" font-size="18.00" fill="#000000">failed_jobs</text>
<text text-anchor="start" x="136.227" y="-310.3" font-family="Arial" font-size="14.00" fill="#000000">    </text>
<text text-anchor="start" x="170.4318" y="-310.3" font-family="Arial" font-size="14.00" fill="#666666">[BASE TABLE]</text>
<polygon fill="none" stroke="#000000" points="43.5,-267.5 43.5,-297.5 270.5,-297.5 270.5,-267.5 43.5,-267.5"/>
<text text-anchor="start" x="50.5" y="-278.9" font-family="Arial" font-size="14.00" fill="#000000">id    </text>
<text text-anchor="start" x="95.594" y="-278.9" font-family="Arial" font-size="14.00" fill="#666666">[bigint unsigned]</text>
<polygon fill="none" stroke="#000000" points="43.5,-237.5 43.5,-267.5 270.5,-267.5 270.5,-237.5 43.5,-237.5"/>
<text text-anchor="start" x="50.5" y="-248.9" font-family="Arial" font-size="14.00" fill="#000000">uuid    </text>
<text text-anchor="start" x="111.1592" y="-248.9" font-family="Arial" font-size="14.00" fill="#666666">[varchar(255)]</text>
<polygon fill="none" stroke="#000000" points="43.5,-207.5 43.5,-237.5 270.5,-237.5 270.5,-207.5 43.5,-207.5"/>
<text text-anchor="start" x="50.5" y="-218.9" font-family="Arial" font-size="14.00" fill="#000000">connection    </text>
<text text-anchor="start" x="152.3976" y="-218.9" font-family="Arial" font-size="14.00" fill="#666666">[text]</text>
<polygon fill="none" stroke="#000000" points="43.5,-177.5 43.5,-207.5 270.5,-207.5 270.5,-177.5 43.5,-177.5"/>
<text text-anchor="start" x="50.5" y="-188.9" font-family="Arial" font-size="14.00" fill="#000000">queue    </text>
<text text-anchor="start" x="123.6178" y="-188.9" font-family="Arial" font-size="14.00" fill="#666666">[text]</text>
<polygon fill="none" stroke="#000000" points="43.5,-147.5 43.5,-177.5 270.5,-177.5 270.5,-147.5 43.5,-147.5"/>
<text text-anchor="start" x="50.5" y="-158.9" font-family="Arial" font-size="14.00" fill="#000000">payload    </text>
<text text-anchor="start" x="133.7244" y="-158.9" font-family="Arial" font-size="14.00" fill="#666666">[longtext]</text>
<polygon fill="none" stroke="#000000" points="43.5,-117.5 43.5,-147.5 270.5,-147.5 270.5,-117.5 43.5,-117.5"/>
<text text-anchor="start" x="50.5" y="-128.9" font-family="Arial" font-size="14.00" fill="#000000">exception    </text>
<text text-anchor="start" x="144.615" y="-128.9" font-family="Arial" font-size="14.00" fill="#666666">[longtext]</text>
<polygon fill="none" stroke="#000000" points="43.5,-87.5 43.5,-117.5 270.5,-117.5 270.5,-87.5 43.5,-87.5"/>
<text text-anchor="start" x="50.5" y="-98.9" font-family="Arial" font-size="14.00" fill="#000000">failed_at    </text>
<text text-anchor="start" x="137.6122" y="-98.9" font-family="Arial" font-size="14.00" fill="#666666">[timestamp]</text>
</g>
<!-- migrations -->
<g id="node2" class="node">
<title>migrations</title>
<polygon fill="#efefef" stroke="transparent" points="374.5,-237.5 374.5,-272.5 598.5,-272.5 598.5,-237.5 374.5,-237.5"/>
<polygon fill="none" stroke="#000000" points="374.5,-237.5 374.5,-272.5 598.5,-272.5 598.5,-237.5 374.5,-237.5"/>
<text text-anchor="start" x="381.2161" y="-250.3" font-family="Arial Bold" font-size="18.00" fill="#000000">migrations</text>
<text text-anchor="start" x="464.2159" y="-250.3" font-family="Arial" font-size="14.00" fill="#000000">    </text>
<text text-anchor="start" x="498.4207" y="-250.3" font-family="Arial" font-size="14.00" fill="#666666">[BASE TABLE]</text>
<polygon fill="none" stroke="#000000" points="374.5,-207.5 374.5,-237.5 598.5,-237.5 598.5,-207.5 374.5,-207.5"/>
<text text-anchor="start" x="381.5" y="-218.9" font-family="Arial" font-size="14.00" fill="#000000">id    </text>
<text text-anchor="start" x="426.594" y="-218.9" font-family="Arial" font-size="14.00" fill="#666666">[int unsigned]</text>
<polygon fill="none" stroke="#000000" points="374.5,-177.5 374.5,-207.5 598.5,-207.5 598.5,-177.5 374.5,-177.5"/>
<text text-anchor="start" x="381.5" y="-188.9" font-family="Arial" font-size="14.00" fill="#000000">migration    </text>
<text text-anchor="start" x="473.2602" y="-188.9" font-family="Arial" font-size="14.00" fill="#666666">[varchar(255)]</text>
<polygon fill="none" stroke="#000000" points="374.5,-147.5 374.5,-177.5 598.5,-177.5 598.5,-147.5 374.5,-147.5"/>
<text text-anchor="start" x="381.5" y="-158.9" font-family="Arial" font-size="14.00" fill="#000000">batch    </text>
<text text-anchor="start" x="449.9432" y="-158.9" font-family="Arial" font-size="14.00" fill="#666666">[int]</text>
</g>
<!-- password_reset_tokens -->
<g id="node3" class="node">
<title>password_reset_tokens</title>
<polygon fill="#efefef" stroke="transparent" points="703.5,-237.5 703.5,-272.5 1034.5,-272.5 1034.5,-237.5 703.5,-237.5"/>
<polygon fill="none" stroke="#000000" points="703.5,-237.5 703.5,-272.5 1034.5,-272.5 1034.5,-237.5 703.5,-237.5"/>
<text text-anchor="start" x="710.1904" y="-250.3" font-family="Arial Bold" font-size="18.00" fill="#000000">password_reset_tokens</text>
<text text-anchor="start" x="900.2416" y="-250.3" font-family="Arial" font-size="14.00" fill="#000000">    </text>
<text text-anchor="start" x="934.4464" y="-250.3" font-family="Arial" font-size="14.00" fill="#666666">[BASE TABLE]</text>
<polygon fill="none" stroke="#000000" points="703.5,-207.5 703.5,-237.5 1034.5,-237.5 1034.5,-207.5 703.5,-207.5"/>
<text text-anchor="start" x="710.5" y="-218.9" font-family="Arial" font-size="14.00" fill="#000000">email    </text>
<text text-anchor="start" x="778.1438" y="-218.9" font-family="Arial" font-size="14.00" fill="#666666">[varchar(255)]</text>
<polygon fill="none" stroke="#000000" points="703.5,-177.5 703.5,-207.5 1034.5,-207.5 1034.5,-177.5 703.5,-177.5"/>
<text text-anchor="start" x="710.5" y="-188.9" font-family="Arial" font-size="14.00" fill="#000000">token    </text>
<text text-anchor="start" x="778.9432" y="-188.9" font-family="Arial" font-size="14.00" fill="#666666">[varchar(255)]</text>
<polygon fill="none" stroke="#000000" points="703.5,-147.5 703.5,-177.5 1034.5,-177.5 1034.5,-147.5 703.5,-147.5"/>
<text text-anchor="start" x="710.5" y="-158.9" font-family="Arial" font-size="14.00" fill="#000000">created_at    </text>
<text text-anchor="start" x="810.8422" y="-158.9" font-family="Arial" font-size="14.00" fill="#666666">[timestamp]</text>
</g>
<!-- personal_access_tokens -->
<g id="node4" class="node">
<title>personal_access_tokens</title>
<polygon fill="#efefef" stroke="transparent" points="1138.5,-342.5 1138.5,-377.5 1477.5,-377.5 1477.5,-342.5 1138.5,-342.5"/>
<polygon fill="none" stroke="#000000" points="1138.5,-342.5 1138.5,-377.5 1477.5,-377.5 1477.5,-342.5 1138.5,-342.5"/>
<text text-anchor="start" x="1145.1845" y="-355.3" font-family="Arial Bold" font-size="18.00" fill="#000000">personal_access_tokens</text>
<text text-anchor="start" x="1343.2475" y="-355.3" font-family="Arial" font-size="14.00" fill="#000000">    </text>
<text text-anchor="start" x="1377.4523" y="-355.3" font-family="Arial" font-size="14.00" fill="#666666">[BASE TABLE]</text>
<polygon fill="none" stroke="#000000" points="1138.5,-312.5 1138.5,-342.5 1477.5,-342.5 1477.5,-312.5 1138.5,-312.5"/>
<text text-anchor="start" x="1145.5" y="-323.9" font-family="Arial" font-size="14.00" fill="#000000">id    </text>
<text text-anchor="start" x="1190.594" y="-323.9" font-family="Arial" font-size="14.00" fill="#666666">[bigint unsigned]</text>
<polygon fill="none" stroke="#000000" points="1138.5,-282.5 1138.5,-312.5 1477.5,-312.5 1477.5,-282.5 1138.5,-282.5"/>
<text text-anchor="start" x="1145.5" y="-293.9" font-family="Arial" font-size="14.00" fill="#000000">tokenable_type    </text>
<text text-anchor="start" x="1274.636" y="-293.9" font-family="Arial" font-size="14.00" fill="#666666">[varchar(255)]</text>
<polygon fill="none" stroke="#000000" points="1138.5,-252.5 1138.5,-282.5 1477.5,-282.5 1477.5,-252.5 1138.5,-252.5"/>
<text text-anchor="start" x="1145.5" y="-263.9" font-family="Arial" font-size="14.00" fill="#000000">tokenable_id    </text>
<text text-anchor="start" x="1259.0694" y="-263.9" font-family="Arial" font-size="14.00" fill="#666666">[bigint unsigned]</text>
<polygon fill="none" stroke="#000000" points="1138.5,-222.5 1138.5,-252.5 1477.5,-252.5 1477.5,-222.5 1138.5,-222.5"/>
<text text-anchor="start" x="1145.5" y="-233.9" font-family="Arial" font-size="14.00" fill="#000000">name    </text>
<text text-anchor="start" x="1214.7132" y="-233.9" font-family="Arial" font-size="14.00" fill="#666666">[varchar(255)]</text>
<polygon fill="none" stroke="#000000" points="1138.5,-192.5 1138.5,-222.5 1477.5,-222.5 1477.5,-192.5 1138.5,-192.5"/>
<text text-anchor="start" x="1145.5" y="-203.9" font-family="Arial" font-size="14.00" fill="#000000">token    </text>
<text text-anchor="start" x="1213.9432" y="-203.9" font-family="Arial" font-size="14.00" fill="#666666">[varchar(64)]</text>
<polygon fill="none" stroke="#000000" points="1138.5,-162.5 1138.5,-192.5 1477.5,-192.5 1477.5,-162.5 1138.5,-162.5"/>
<text text-anchor="start" x="1145.5" y="-173.9" font-family="Arial" font-size="14.00" fill="#000000">abilities    </text>
<text text-anchor="start" x="1226.3696" y="-173.9" font-family="Arial" font-size="14.00" fill="#666666">[text]</text>
<polygon fill="none" stroke="#000000" points="1138.5,-132.5 1138.5,-162.5 1477.5,-162.5 1477.5,-132.5 1138.5,-132.5"/>
<text text-anchor="start" x="1145.5" y="-143.9" font-family="Arial" font-size="14.00" fill="#000000">last_used_at    </text>
<text text-anchor="start" x="1259.0708" y="-143.9" font-family="Arial" font-size="14.00" fill="#666666">[timestamp]</text>
<polygon fill="none" stroke="#000000" points="1138.5,-102.5 1138.5,-132.5 1477.5,-132.5 1477.5,-102.5 1138.5,-102.5"/>
<text text-anchor="start" x="1145.5" y="-113.9" font-family="Arial" font-size="14.00" fill="#000000">expires_at    </text>
<text text-anchor="start" x="1244.2756" y="-113.9" font-family="Arial" font-size="14.00" fill="#666666">[timestamp]</text>
<polygon fill="none" stroke="#000000" points="1138.5,-72.5 1138.5,-102.5 1477.5,-102.5 1477.5,-72.5 1138.5,-72.5"/>
<text text-anchor="start" x="1145.5" y="-83.9" font-family="Arial" font-size="14.00" fill="#000000">created_at    </text>
<text text-anchor="start" x="1245.8422" y="-83.9" font-family="Arial" font-size="14.00" fill="#666666">[timestamp]</text>
<polygon fill="none" stroke="#000000" points="1138.5,-42.5 1138.5,-72.5 1477.5,-72.5 1477.5,-42.5 1138.5,-42.5"/>
<text text-anchor="start" x="1145.5" y="-53.9" font-family="Arial" font-size="14.00" fill="#000000">updated_at    </text>
<text text-anchor="start" x="1249.7468" y="-53.9" font-family="Arial" font-size="14.00" fill="#666666">[timestamp]</text>
</g>
<!-- users -->
<g id="node5" class="node">
<title>users</title>
<polygon fill="#efefef" stroke="transparent" points="1581.5,-312.5 1581.5,-347.5 1822.5,-347.5 1822.5,-312.5 1581.5,-312.5"/>
<polygon fill="none" stroke="#000000" points="1581.5,-312.5 1581.5,-347.5 1822.5,-347.5 1822.5,-312.5 1581.5,-312.5"/>
<text text-anchor="start" x="1616.2137" y="-325.3" font-family="Arial Bold" font-size="18.00" fill="#000000">users</text>
<text text-anchor="start" x="1660.2183" y="-325.3" font-family="Arial" font-size="14.00" fill="#000000">    </text>
<text text-anchor="start" x="1694.4231" y="-325.3" font-family="Arial" font-size="14.00" fill="#666666">[BASE TABLE]</text>
<polygon fill="none" stroke="#000000" points="1581.5,-282.5 1581.5,-312.5 1822.5,-312.5 1822.5,-282.5 1581.5,-282.5"/>
<text text-anchor="start" x="1588.5" y="-293.9" font-family="Arial" font-size="14.00" fill="#000000">id    </text>
<text text-anchor="start" x="1633.594" y="-293.9" font-family="Arial" font-size="14.00" fill="#666666">[bigint unsigned]</text>
<polygon fill="none" stroke="#000000" points="1581.5,-252.5 1581.5,-282.5 1822.5,-282.5 1822.5,-252.5 1581.5,-252.5"/>
<text text-anchor="start" x="1588.5" y="-263.9" font-family="Arial" font-size="14.00" fill="#000000">name    </text>
<text text-anchor="start" x="1657.7132" y="-263.9" font-family="Arial" font-size="14.00" fill="#666666">[varchar(255)]</text>
<polygon fill="none" stroke="#000000" points="1581.5,-222.5 1581.5,-252.5 1822.5,-252.5 1822.5,-222.5 1581.5,-222.5"/>
<text text-anchor="start" x="1588.5" y="-233.9" font-family="Arial" font-size="14.00" fill="#000000">email    </text>
<text text-anchor="start" x="1656.1438" y="-233.9" font-family="Arial" font-size="14.00" fill="#666666">[varchar(255)]</text>
<polygon fill="none" stroke="#000000" points="1581.5,-192.5 1581.5,-222.5 1822.5,-222.5 1822.5,-192.5 1581.5,-192.5"/>
<text text-anchor="start" x="1588.5" y="-203.9" font-family="Arial" font-size="14.00" fill="#000000">email_verified_at    </text>
<text text-anchor="start" x="1728.4944" y="-203.9" font-family="Arial" font-size="14.00" fill="#666666">[timestamp]</text>
<polygon fill="none" stroke="#000000" points="1581.5,-162.5 1581.5,-192.5 1822.5,-192.5 1822.5,-162.5 1581.5,-162.5"/>
<text text-anchor="start" x="1588.5" y="-173.9" font-family="Arial" font-size="14.00" fill="#000000">password    </text>
<text text-anchor="start" x="1682.6024" y="-173.9" font-family="Arial" font-size="14.00" fill="#666666">[varchar(255)]</text>
<polygon fill="none" stroke="#000000" points="1581.5,-132.5 1581.5,-162.5 1822.5,-162.5 1822.5,-132.5 1581.5,-132.5"/>
<text text-anchor="start" x="1588.4411" y="-143.9" font-family="Arial" font-size="14.00" fill="#000000">remember_token    </text>
<text text-anchor="start" x="1728.4397" y="-143.9" font-family="Arial" font-size="14.00" fill="#666666">[varchar(100)]</text>
<polygon fill="none" stroke="#000000" points="1581.5,-102.5 1581.5,-132.5 1822.5,-132.5 1822.5,-102.5 1581.5,-102.5"/>
<text text-anchor="start" x="1588.5" y="-113.9" font-family="Arial" font-size="14.00" fill="#000000">created_at    </text>
<text text-anchor="start" x="1688.8422" y="-113.9" font-family="Arial" font-size="14.00" fill="#666666">[timestamp]</text>
<polygon fill="none" stroke="#000000" points="1581.5,-72.5 1581.5,-102.5 1822.5,-102.5 1822.5,-72.5 1581.5,-72.5"/>
<text text-anchor="start" x="1588.5" y="-83.9" font-family="Arial" font-size="14.00" fill="#000000">updated_at    </text>
<text text-anchor="start" x="1692.7468" y="-83.9" font-family="Arial" font-size="14.00" fill="#666666">[timestamp]</text>
</g>
</g>
</svg>
